<?xml version="1.0" encoding="UTF-8" standalone="no"?>
<svg
   xmlns:dc="http://purl.org/dc/elements/1.1/"
   xmlns:cc="http://creativecommons.org/ns#"
   xmlns:rdf="http://www.w3.org/1999/02/22-rdf-syntax-ns#"
   xmlns:svg="http://www.w3.org/2000/svg"
   xmlns="http://www.w3.org/2000/svg"
   xml:space="preserve"
   style="enable-background:new 0 0 512 512;"
   viewBox="0 0 512 512"
   y="0px"
   x="0px"
   id="Layer_1"
   version="1.1"><metadata
     id="metadata3821"><rdf:RDF><cc:Work
         rdf:about=""><dc:format>image/svg+xml</dc:format><dc:type
           rdf:resource="http://purl.org/dc/dcmitype/StillImage" /><dc:title></dc:title><dc:creator><cc:Agent><dc:title>GWRon</dc:title></cc:Agent></dc:creator><cc:license
           rdf:resource="http://creativecommons.org/licenses/by-nc-sa/3.0/" /></cc:Work><cc:License
         rdf:about="http://creativecommons.org/licenses/by-nc-sa/3.0/"><cc:permits
           rdf:resource="http://creativecommons.org/ns#Reproduction" /><cc:permits
           rdf:resource="http://creativecommons.org/ns#Distribution" /><cc:requires
           rdf:resource="http://creativecommons.org/ns#Notice" /><cc:requires
           rdf:resource="http://creativecommons.org/ns#Attribution" /><cc:prohibits
           rdf:resource="http://creativecommons.org/ns#CommercialUse" /><cc:permits
           rdf:resource="http://creativecommons.org/ns#DerivativeWorks" /><cc:requires
           rdf:resource="http://creativecommons.org/ns#ShareAlike" /></cc:License></rdf:RDF></metadata><defs
     id="defs3819" /><path
     id="path3768"
     d="m 438,0 c 17.6,0 32,14.4 32,32 l 0,448 c 0,17.6 -14.4,32 -32,32 l -320,0 C 100.4,512 86,497.6 86,480 L 86,128 214,0 Z"
     style="fill:#deeeff;fill-opacity:1" /><g
     style="opacity:0"
     transform="matrix(2.8361519,0,0,2.8562917,116.5154,43.963406)"
     id="g3861"><g
       id="g3855"><path
         style="fill:#43a1ff"
         d="M 48.1,42.206 C 43.094,42.713 30.008,44.86 20.997,53.757 10.27,64.361 3.484,81.81 3.2,82.547 3.065,82.899 3,83.263 3,83.624 c 0,0.964 0.466,1.897 1.298,2.471 1.141,0.786 2.673,0.688 3.705,-0.236 6.346,-5.688 15.294,-10.957 17.987,-9.424 0.414,0.235 1.307,0.744 1.307,2.417 0,1.284 -0.53,3.258 -2.2,6.317 C 24.369,84.346 23.3,83.893 22.199,84.164 15.327,85.858 3.182,93.43 6.406,109.96 c 0.231,1.187 1.152,2.118 2.335,2.363 16.485,3.418 24.204,-8.635 25.982,-15.485 0.065,-0.251 0.097,-0.504 0.097,-0.754 0,-0.77 -0.378,-1.444 -0.906,-2 4.396,-2.298 7.422,-2.446 8.98,-0.413 1.423,1.855 -3.581,10.37 -10.101,17.192 -0.958,1.003 -1.105,2.532 -0.354,3.698 0.752,1.166 2.205,1.665 3.514,1.206 0.753,-0.264 18.563,-6.584 29.312,-17.204 8.976,-8.867 11.604,-21.575 12.306,-26.433 32.31,-11.771 33.82,-58.405 33.868,-60.422 0.001,-0.024 0.001,-0.048 0.001,-0.072 0,-1.405 -0.978,-2.626 -2.356,-2.929 C 108.629,8.607 61.391,7.723 48.1,42.206 Z m 31.528,-7.217 c 0,-0.011 0,-0.022 0,-0.034 0.008,-1.379 0.554,-2.672 1.536,-3.643 0.995,-0.983 2.316,-1.52 3.723,-1.511 2.883,0.018 5.215,2.358 5.198,5.217 -0.019,2.859 -2.377,5.173 -5.259,5.158 -2.873,-0.019 -5.198,-2.343 -5.198,-5.187 z"
         id="path3853" /></g><g
       id="g3859"><path
         style="fill:#f6f6f6"
         d="m 108.076,5.636 c -2.386,0 -14.966,0.232 -28.39,4.814 -7.878,2.689 -14.691,6.4 -20.248,11.028 C 53.46,26.458 48.936,32.49 45.954,39.449 39.695,40.314 27.57,43.051 18.889,51.622 7.706,62.677 0.693,80.709 0.4,81.472 c -0.995,2.586 -0.087,5.516 2.194,7.09 1.03,0.711 2.22,1.061 3.405,1.061 1.439,0 2.873,-0.516 4.006,-1.529 0.027,-0.024 2.746,-2.449 6.202,-4.808 4.496,-3.066 7.017,-3.838 8.059,-4.03 -0.05,0.337 -0.16,0.824 -0.396,1.487 -0.435,1.219 -1.056,2.353 -1.427,3.029 -0.297,0.542 -0.531,0.97 -0.729,1.549 -0.251,0.734 -0.353,1.498 -0.314,2.251 0.932,-0.351 1.517,-0.495 1.517,-0.495 -0.505,0.489 -0.968,0.97 -1.392,1.442 0.17,0.792 0.501,1.552 0.984,2.229 1.827,-2.042 4.325,-2.656 4.324,-2.657 -2.349,2.556 -1.021,4.502 -1.021,4.502 0,0 0.899,0.797 2.193,0.797 0.807,0 1.769,-0.312 2.76,-1.321 0,0 -0.653,2.517 -2.745,4.321 0.668,0.553 1.436,0.944 2.247,1.166 0.505,-0.447 1.023,-0.936 1.552,-1.47 0,0 -0.167,0.643 -0.568,1.651 0.197,0.02 0.396,0.029 0.594,0.029 0.648,0 1.301,-0.105 1.933,-0.32 0.524,-0.178 0.915,-0.387 1.329,-0.607 3.017,-1.611 4.285,-1.611 4.701,-1.611 0.055,0 0.105,0.001 0.15,0.003 -0.293,1.058 -1.218,3.348 -4.138,7.316 -2.541,3.454 -5.17,6.218 -5.196,6.245 -1.916,2.007 -2.207,5.065 -0.704,7.396 1.129,1.751 3.049,2.749 5.042,2.749 0.662,0 1.331,-0.109 1.982,-0.338 0.779,-0.273 19.204,-6.812 30.428,-17.9 8.621,-8.517 11.771,-20.285 12.871,-26.354 7.039,-2.9 13.162,-7.62 18.239,-14.067 4.573,-5.809 8.283,-13.014 11.026,-21.414 4.567,-13.99 4.917,-26.555 4.929,-27.083 0.038,-1.598 -0.567,-3.144 -1.673,-4.297 -1.107,-1.153 -2.633,-1.818 -4.23,-1.845 10e-4,0 -0.158,-0.003 -0.458,-0.003 z M 6,83.625 c 0,0 6.714,-17.462 17.104,-27.733 10.399,-10.267 27.129,-10.839 27.129,-10.839 10.953,-32.576 53.476,-33.417 57.843,-33.417 0.238,0 0.364,0.002 0.364,0.002 l 0,0 0,0 c 0,0 -1.15,48.204 -33.627,58.292 0,0 -1.265,16.233 -11.657,26.501 -10.393,10.267 -28.195,16.506 -28.195,16.506 l 0,0 0,0 c 0,0 11.108,-11.605 11.132,-18.403 0.004,-1.022 -0.244,-1.938 -0.818,-2.687 -1.508,-1.967 -3.489,-2.62 -5.467,-2.62 -3.796,0 -7.578,2.408 -7.963,2.539 l 0,0 0,0 c 0.141,-0.908 0.226,-1.648 0.226,-2.246 0,-1.795 -0.763,-2.319 -3.062,-2.319 -0.472,0 -1.009,0.022 -1.617,0.06 l 0,0 0,0 c 0.168,-0.493 2.906,-4.652 2.912,-8.446 0.003,-1.937 -0.705,-3.777 -2.83,-4.987 -0.777,-0.44 -1.676,-0.635 -2.658,-0.635 C 17.622,73.192 6,83.625 6,83.625 Z M 84.904,26.801 c -0.017,0 -0.034,0 -0.051,0 -4.522,0.001 -8.2,3.63 -8.227,8.135 0,0.018 0,0.036 0,0.053 0,4.499 3.651,8.157 8.18,8.187 0.016,10e-4 0.03,10e-4 0.048,10e-4 4.519,0 8.201,-3.633 8.229,-8.141 0,-0.018 0,-0.035 0,-0.053 0,-4.496 -3.65,-8.154 -8.179,-8.182 z m -0.01,10.376 c -0.016,0 -0.031,0 -0.047,0 -1.232,-0.008 -2.228,-0.996 -2.22,-2.202 0.008,-1.199 1.006,-2.173 2.228,-2.173 l 0.013,0 c 1.229,0.007 2.223,0.992 2.217,2.196 -0.009,1.189 -0.987,2.158 -2.191,2.179 z m 0.287,0.011 c -0.066,-0.004 -0.134,-0.007 -0.2,-0.009 0.056,10e-4 0.124,0.004 0.2,0.009 z M 22.918,81.077 c -0.476,0 -0.958,0.057 -1.437,0.175 -0.581,0.144 -5.812,1.519 -10.596,5.657 -2.991,2.588 -5.184,5.697 -6.519,9.245 -1.622,4.308 -1.926,9.146 -0.905,14.382 0.463,2.372 2.304,4.235 4.671,4.727 2.118,0.438 4.197,0.662 6.181,0.662 4.222,0 8.111,-0.989 11.56,-2.94 2.739,-1.55 5.156,-3.684 7.183,-6.342 3.275,-4.297 4.448,-8.576 4.571,-9.05 0.681,-2.625 -0.483,-5.38 -2.84,-6.722 -0.185,-0.105 -0.373,-0.199 -0.564,-0.283 -1.296,0.571 -2.2,1.118 -2.378,1.179 0.099,-0.64 0.17,-1.195 0.204,-1.677 -0.076,-0.003 -0.152,-0.005 -0.228,-0.005 -1.563,0 -3.107,0.609 -4.265,1.777 -0.405,0.409 -0.794,0.778 -1.167,1.111 0.388,0.205 0.949,0.416 1.615,0.416 0.807,0 1.769,-0.312 2.76,-1.321 0,0 -1.587,6.114 -7.732,6.114 -0.675,0 -1.406,-0.074 -2.195,-0.238 -1.56,-7.994 5.997,-9.852 5.995,-9.854 -2.349,2.556 -1.021,4.502 -1.021,4.502 0,0 0.023,0.021 0.068,0.056 0.355,-0.4 0.755,-0.82 1.208,-1.257 1.168,-1.13 1.795,-2.646 1.828,-4.189 -0.449,0.002 -0.956,0.023 -1.524,0.059 0.07,-0.205 0.586,-1.047 1.165,-2.233 -0.105,-0.291 -0.235,-0.576 -0.388,-0.854 -1.074,-1.943 -3.105,-3.097 -5.25,-3.097 z M 8.871,104.656 C 8.877,90.539 22.918,87.077 22.918,87.077 l 0,0 0,0 c -4.636,4.482 -5.702,8.321 -5.7,10.908 0.002,2.212 0.785,3.508 0.785,3.508 0,0 0.956,0.55 2.693,0.55 2.387,0 6.248,-1.036 11.124,-5.957 l 0,0 0,0 c 0,0 -3.592,13.839 -17.506,13.839 -1.527,0 -3.179,-0.167 -4.963,-0.537 -0.331,-1.697 -0.481,-3.271 -0.48,-4.732 z m 11.544,-8.638 c 0,0 0,0 0,0 0,0 0,0 0,0 z m 6.413,-13.927 c -0.511,0 -1.027,0.065 -1.539,0.201 -0.794,0.211 -3.58,1.071 -6.109,3.317 -1.68,1.492 -2.909,3.27 -3.665,5.255 3.633,-2.858 7.402,-3.788 7.402,-3.788 -8.599,8.314 -4.915,14.416 -4.915,14.416 0,0 0.956,0.55 2.693,0.55 2.387,0 6.248,-1.036 11.124,-5.957 0,0 -0.941,3.626 -3.726,7.165 2.292,-0.894 4.302,-2.415 5.883,-4.488 1.805,-2.369 2.48,-4.736 2.597,-5.188 0.334,-1.287 0.224,-2.606 -0.253,-3.774 -2.359,0.722 -4.212,1.876 -4.475,1.966 0.563,-3.634 0.229,-4.565 -2.836,-4.565 -0.472,0 -1.009,0.022 -1.617,0.06 0.11,-0.321 1.313,-2.203 2.138,-4.526 -0.832,-0.42 -1.757,-0.644 -2.702,-0.644 z m -6.202,13.763 c 0.003,-6.236 6.209,-7.762 6.208,-7.764 l 0,0 0,0 c -1.101,1.198 -1.395,2.262 -1.395,3.055 -0.001,0.897 0.374,1.447 0.374,1.447 0,0 0.899,0.797 2.193,0.797 0.807,0 1.769,-0.312 2.76,-1.321 l 0,0 0,0 c 0,0 -1.587,6.114 -7.732,6.114 -0.675,0 -1.406,-0.074 -2.195,-0.238 -0.147,-0.749 -0.213,-1.444 -0.213,-2.09 z"
         id="path3857" /></g></g><path
     style="fill:#ff960b;stroke-width:2.84620404"
     id="path3542_7_"
     d="m 167.57464,333.85702 c 0,0 -10.45122,-17.42909 13.93969,-41.1763 0,0 -48.48685,12.03927 -38.47807,63.72387 51.17836,10.68538 63.72549,-37.9944 63.72549,-37.9944 -23.8889,24.27563 -39.18711,15.44683 -39.18711,15.44683 z m 8.04049,-10.13698 c 22.61264,4.73002 28.15732,-16.78357 28.15732,-16.78357 -7.3116,7.50348 -14.04746,1.49384 -14.04746,1.49384 0,0 -3.76925,-5.55549 2.89571,-12.85902 0.003,0.006 -21.42713,5.31555 -17.00557,28.14875 z" /><path
     style="fill:#43a1ff;stroke-width:2.84620404"
     id="path3542_4_"
     d="m 424.06771,77.204929 c 0,0 -132.32066,-2.676346 -165.08389,95.442991 0,0 -47.44882,1.63379 -76.94197,30.95934 -29.46478,29.33697 -48.50954,79.21354 -48.50954,79.21354 0,0 42.57631,-38.49139 60.90353,-27.98595 17.83372,10.22553 0.48782,36.24349 -0.23257,38.36857 12.93002,-0.80547 14.47289,0.89402 12.62939,12.87331 1.66198,-0.57126 25.60194,-16.17804 38.08952,0.2285 12.45638,16.35798 -29.25207,60.24205 -29.25207,60.24205 0,0 50.48917,-17.82041 79.96814,-47.14881 29.47612,-29.3284 33.05818,-75.69744 33.05818,-75.69744 92.11254,-28.81427 95.37128,-166.496101 95.37128,-166.496101 z m -90.22366,66.545881 c 0.0737,-12.91329 10.58168,-23.31305 23.47199,-23.23593 12.89598,0.08 23.2763,10.60827 23.20256,23.51871 -0.0822,12.92186 -10.59586,23.32733 -23.47767,23.25021 -12.89314,-0.0828 -23.27913,-10.61684 -23.19688,-23.53299 z" /><path
     id="path3784-8"
     d="M 187.29368,122.76581 86,127.52417 l 0,16 112.71375,0 c 8.8,0 16,-7.2 16,-16 l 0,-35.98513 c 0,8.8 -18.62959,30.81767 -27.42007,31.22677 z"
     style="opacity:0.12000002;fill:#000000;fill-opacity:1" /><path
     id="path3770"
     d="m 182,128 -96,0 128,-128 0,96 c 0,17.6 -14.4,32 -32,32 z"
     style="fill:#97adc1;fill-opacity:1" /><path
     id="path3774"
     d="m 406,444.55019 c 0,8.8 -7.2,16 -16,16 l -334.341967,0 c -8.8,0 -16,-7.2 -16,-16 l 0,-105.75465 c 0,-8.8 7.2,-16 16,-16 l 334.341967,0 c 8.8,0 16,7.2 16,16 z"
     style="fill:#46515c;fill-opacity:1" /><path
     id="path3784"
     d="m 390,460.55019 -304,0 0,16 304,0 c 8.8,0 16,-7.2 16,-16 l 0,-16 c 0,8.8 -7.2,16 -16,16 z"
     style="opacity:0.15;fill:#000000;fill-opacity:1" /><g
     id="g3786" /><g
     id="g3788" /><g
     id="g3790" /><g
     id="g3792" /><g
     id="g3794" /><g
     id="g3796" /><g
     id="g3798" /><g
     id="g3800" /><g
     id="g3802" /><g
     id="g3804" /><g
     id="g3806" /><g
     id="g3808" /><g
     id="g3810" /><g
     id="g3812" /><g
     id="g3814" /><g
     transform="translate(-180.93671,91.884504)"
     display="none"
     id="Ebene_2"
     style="display:none"><g
       id="g3871"
       display="inline"
       style="display:inline"><path
         d="m 59.495,5.5 c 0,0 -30.778,29.564 -16.035,59.249 0,0 -10.449,11.19 -10.533,24.555 -0.077,13.361 6.873,28.994 6.873,28.994 0,0 0.994,-18.421 7.551,-20.222 6.381,-1.75 8.318,8.096 8.635,8.74 2.765,-3.132 3.5,-3.1 5.793,0.034 0.25,-0.51 2.176,-9.501 8.736,-8.632 6.543,0.862 6.97,20.309 6.97,20.309 0,0 7.478,-15.549 7.559,-28.908 C 85.125,76.258 75.443,64.941 75.443,64.941 89.923,37.416 59.495,5.5 59.495,5.5 Z m -5.508,35.639 c -2.906,-2.941 -2.865,-7.692 0.092,-10.613 2.957,-2.922 7.709,-2.906 10.615,0.035 2.907,2.944 2.865,7.697 -0.089,10.618 -2.959,2.921 -7.711,2.903 -10.618,-0.04 z"
         id="path3542_6_"
         style="fill:#43a1ff" /><path
         id="path3867"
         d="m 55.685,1.534 c -1.098,1.054 -21.778,21.275 -21.778,46.132 0,5.228 0.993,10.665 3.197,16.168 -3.479,4.579 -9.605,14.214 -9.676,25.435 0,0.084 0,0.167 0,0.251 0,14.319 7.045,30.334 7.347,31.013 1.032,2.321 3.52,3.632 6.019,3.173 2.499,-0.458 4.358,-2.57 4.499,-5.106 0.341,-6.138 1.973,-12.922 3.5,-14.922 0.39,0.523 1.014,1.651 1.727,4.088 l 0.533,1.479 c 0.659,1.828 2.114,2.893 4.023,3.257 1.377,0.263 2.707,-0.181 3.831,-0.983 1.061,0.72 2.297,1.138 3.563,0.938 1.962,-0.311 3.559,-1.319 4.251,-3.182 l 0.463,-1.247 c 0.778,-2.563 1.561,-3.708 2.101,-4.136 1.312,2.232 2.568,8.869 2.705,14.762 0.06,2.542 1.854,4.714 4.339,5.25 2.485,0.536 5.015,-0.699 6.117,-2.99 0.327,-0.681 8.014,-16.829 8.102,-31.259 0,-0.066 0.001,-0.133 0.001,-0.199 0,-11.064 -5.579,-20.65 -8.767,-25.229 2.144,-5.147 3.107,-10.342 3.107,-15.425 0,-24.288 -20.33,-45.96 -21.41,-47.093 C 62.47,0.651 61.082,0.038 59.62,0.006 58.158,-0.026 56.74,0.521 55.685,1.534 Z M 38.427,89.529 c 0,-0.065 0,-0.13 0,-0.193 0.069,-10.979 8.974,-20.747 9.063,-20.844 0.962,-1.043 1.466,-2.391 1.466,-3.753 0,-0.829 -0.187,-1.663 -0.571,-2.437 -2.403,-4.839 -3.379,-9.722 -3.379,-14.462 0,-14.375 8.959,-27.408 14.341,-33.948 5.37,6.931 14.484,20.768 14.484,34.948 0,4.556 -0.942,9.143 -3.256,13.541 -0.423,0.803 -0.629,1.68 -0.629,2.552 0,1.281 0.445,2.555 1.307,3.573 0.084,0.098 8.291,9.928 8.291,20.945 0,0.045 -10e-4,0.09 -10e-4,0.135 -0.017,2.77 -0.409,5.675 -0.989,8.509 -1.71,-2.833 -4.063,-4.899 -7.32,-5.329 -2.531,-0.335 -8.005,-0.134 -11.979,6.223 -0.178,-0.005 -0.345,0.015 -0.517,0.022 -4.195,-7.482 -10.142,-6.979 -12.842,-6.238 -2.824,0.775 -4.955,2.775 -6.579,5.358 -0.534,-2.862 -0.89,-5.799 -0.89,-8.602 z"
         style="fill:#f6f6f6" /><path
         id="path3869"
         d="m 50.213,26.614 c -2.479,2.449 -3.858,5.716 -3.879,9.197 0,0.027 0,0.054 0,0.082 0,3.436 1.326,6.669 3.74,9.112 5.032,5.094 13.284,5.134 18.395,0.088 5.108,-5.052 5.169,-13.303 0.138,-18.397 -2.434,-2.463 -5.682,-3.83 -9.148,-3.851 -3.482,-0.021 -6.765,1.318 -9.246,3.769 z m 7.687,10.66 v 0 c -0.497,-0.502 -0.568,-1.09 -0.566,-1.396 0.002,-0.314 0.083,-0.919 0.61,-1.439 0.527,-0.521 1.135,-0.596 1.449,-0.594 0.306,0.002 0.893,0.08 1.389,0.582 0.771,0.78 0.751,2.055 -0.044,2.842 -0.793,0.781 -2.067,0.786 -2.838,0.005 z m -7.825,7.731 c 0,0 -0.001,-0.001 0,0 0,-0.001 0,0 0,0 z"
         style="fill:#f6f6f6" /></g><path
       d="m 59.495,5.5 c 0,0 -30.778,29.564 -16.035,59.249 0,0 -10.449,11.19 -10.533,24.555 -0.077,13.361 6.873,28.994 6.873,28.994 0,0 0.994,-18.421 7.551,-20.222 6.381,-1.75 8.318,8.096 8.635,8.74 2.765,-3.132 3.5,-3.1 5.793,0.034 0.25,-0.51 2.176,-9.501 8.736,-8.632 6.543,0.862 6.97,20.309 6.97,20.309 0,0 7.478,-15.549 7.559,-28.908 C 85.125,76.258 75.443,64.941 75.443,64.941 89.923,37.416 59.495,5.5 59.495,5.5 Z m -5.508,35.639 c -2.906,-2.941 -2.865,-7.692 0.092,-10.613 2.957,-2.922 7.709,-2.906 10.615,0.035 2.907,2.944 2.865,7.697 -0.089,10.618 -2.959,2.921 -7.711,2.903 -10.618,-0.04 z"
       display="inline"
       id="path3542_5_"
       style="display:inline;fill:#43a1ff" /></g><g
     id="text4727"
     style="font-style:normal;font-weight:normal;font-size:56.66845703px;line-height:1.25;font-family:sans-serif;letter-spacing:0px;word-spacing:0px;fill:#ffffff;fill-opacity:1;stroke:none;stroke-width:1.14693046"><path
       id="path4794"
       style="font-style:normal;font-variant:normal;font-weight:bold;font-stretch:normal;font-size:131.25px;font-family:sand-serif;-inkscape-font-specification:'sand-serif Bold';letter-spacing:3px;fill:#ffffff;fill-opacity:1;stroke-width:1.14693046"
       d="m 102.86839,381.58005 q 5.83191,0 8.844,-2.56348 3.01208,-2.56348 3.01208,-7.56225 0,-4.9347 -3.01208,-7.49817 -3.01209,-2.62757 -8.844,-2.62757 l -13.65051,0 0,20.25147 13.65051,0 z m 0.83313,41.84875 q 7.43408,0 11.15113,-3.14026 3.78112,-3.14026 3.78112,-9.48486 0,-6.21643 -3.71704,-9.2926 -3.71704,-3.14026 -11.21521,-3.14026 l -14.48364,0 0,25.05798 14.48364,0 z m 22.94312,-34.41467 q 7.94678,2.30713 12.30469,8.52356 4.35791,6.21643 4.35791,15.25268 0,13.84278 -9.35669,20.63599 -9.35669,6.79321 -28.45459,6.79321 l -40.951542,0 0,-95.68176 37.042232,0 q 19.93103,0 28.83912,6.02417 8.97216,6.02417 8.97216,19.29016 0,6.98548 -3.26843,11.92017 -3.26843,4.8706 -9.48486,7.24182 z" /><path
       id="path4796"
       style="font-style:normal;font-variant:normal;font-weight:bold;font-stretch:normal;font-size:131.25px;font-family:sand-serif;-inkscape-font-specification:'sand-serif Bold';letter-spacing:3px;fill:#ffffff;fill-opacity:1;stroke-width:1.14693046"
       d="m 167.52,344.53781 31.40259,0 21.78955,51.20545 21.91773,-51.20545 31.3385,0 0,95.68176 -23.32764,0 0,-69.98291 -22.0459,51.58997 -15.6372,0 -22.0459,-51.58997 0,69.98291 -23.39173,0 0,-95.68176 z" /><path
       id="path4798"
       style="font-style:normal;font-variant:normal;font-weight:bold;font-stretch:normal;font-size:131.25px;font-family:sand-serif;-inkscape-font-specification:'sand-serif Bold';letter-spacing:3px;fill:#ffffff;fill-opacity:1;stroke-width:1.14693046"
       d="m 354.57762,391.38535 33.19702,48.83422 -25.69885,0 -22.36633,-32.68432 -22.17407,32.68432 -25.82703,0 33.19702,-48.83422 -31.91528,-46.84754 25.76294,0 20.95642,30.82581 20.89233,-30.82581 25.89111,0 -31.91528,46.84754 z" /></g><g
     id="layer1" /></svg>