<?xml version="1.0" encoding="UTF-8" standalone="no"?>
<svg
   xmlns:dc="http://purl.org/dc/elements/1.1/"
   xmlns:cc="http://creativecommons.org/ns#"
   xmlns:rdf="http://www.w3.org/1999/02/22-rdf-syntax-ns#"
   xmlns:svg="http://www.w3.org/2000/svg"
   xmlns="http://www.w3.org/2000/svg"
   id="svg12"
   version="1.1"
   viewBox="0 0 24 24">
  <metadata
     id="metadata16">
    <rdf:RDF>
      <cc:Work
         rdf:about="">
        <dc:format>image/svg+xml</dc:format>
        <dc:type
           rdf:resource="http://purl.org/dc/dcmitype/StillImage" />
        <dc:title></dc:title>
      </cc:Work>
    </rdf:RDF>
  </metadata>
  <defs
     id="defs4">
    <style
       id="style2">.icon-canvas-transparent{fill:#f6f6f6;opacity:0;}.light{fill:#424242;}</style>
  </defs>
  <path
     id="path941"
     d="m 8.0787331,12.197933 c -1.1241382,1.164163 -2.0890395,2.138155 -2.2223648,4.665433 -0.052597,2.3291 1.2371909,5.81268 2.5666389,7.264046 -0.033876,-1.797244 0.034192,-3.954611 1.2074769,-4.765904 0.8567379,-0.438338 1.1969529,1.019316 1.3454859,1.654482 0.189946,0.554187 0.336163,0.424482 0.582404,0.367372 0.220113,-0.05105 0.140732,-0.753156 0.485871,-0.769649 0.263426,-0.01259 0.297577,0.833549 0.498421,0.83811 0.385212,0.0088 0.433788,-0.407097 0.535632,-0.749719 0.127443,-0.739539 1.115916,-1.787097 1.673411,-1.078438 0.860384,0.96032 0.747077,2.679735 0.743241,4.528832 1.670644,-2.162318 3.087137,-4.60051 2.634007,-7.475918 C 17.74469,14.316278 17.104436,13.75808 16.454261,12.618644 17.525026,7.9067844 17.002121,5.519508 15.440074,3.1178272 14.090527,1.0428674 12.793014,0.18811607 12.219084,0.02992695 11.233998,0.65715307 9.9878946,1.5587042 8.5259006,3.8961982 7.0639062,6.2336923 7.2564678,10.032403 8.0787331,12.197933 Z M 12.309399,1.6480525 c 0,0 1.089885,0.576418 2.49491,3.5201215 1.405022,2.943704 -0.359119,7.4018 -0.359119,7.4018 0,0 1.04502,1.077045 1.66073,2.518105 0.641219,1.500746 0.896386,2.978393 0.268725,5.369404 9.21e-4,-0.723475 -0.586629,-2.170322 -1.588503,-2.551269 -0.915491,-0.348101 -2.093076,0.221194 -2.370272,1.225338 -0.240073,-0.228321 -0.50073,-0.331681 -0.769511,0.0124 C 11.529005,18.346066 10.57769,17.658452 9.7052472,17.728004 8.3823546,17.901669 7.9544764,18.961247 7.7189164,20.045178 7.3487721,18.565614 7.1982109,17.421349 7.7862815,15.349589 8.1810053,13.958986 9.6657838,13.007962 10.014106,12.768086 9.8727899,12.49705 8.1299588,8.4534284 9.4637368,5.4687414 10.797515,2.4840541 12.309399,1.6480525 12.309399,1.6480525 Z m -1.583921,3.7343143 c -0.7800507,0.7396328 -0.7845607,2.0015863 -0.01012,2.8190685 0.774809,0.8171792 2.03519,0.8802967 2.815558,0.1409992 0.781038,-0.7394147 0.786019,-2.0021521 0.01112,-2.8200646 C 12.766829,4.7047615 11.505637,4.6420722 10.725433,5.3823668 Z m 0.691993,0.7301207 c 0.395278,-0.3749039 1.034148,-0.3429101 1.426606,0.071442 0.392727,0.4140968 0.390441,1.0537633 -0.0051,1.4283847 -0.395444,0.3739071 -1.033505,0.3414855 -1.425555,-0.072436 -0.392321,-0.4136668 -0.390506,-1.0525497 0.004,-1.4273892 z"
     style="color:#000000;clip-rule:nonzero;display:inline;overflow:visible;visibility:visible;opacity:1;isolation:auto;mix-blend-mode:normal;color-interpolation:sRGB;color-interpolation-filters:linearRGB;solid-color:#000000;solid-opacity:1;vector-effect:none;fill:#000000;fill-opacity:0.73333333;fill-rule:nonzero;stroke:none;stroke-width:1.51570225;stroke-linecap:round;stroke-linejoin:miter;stroke-miterlimit:4;stroke-dasharray:none;stroke-dashoffset:0;stroke-opacity:1;paint-order:normal;color-rendering:auto;image-rendering:auto;shape-rendering:auto;text-rendering:auto;enable-background:accumulate" />
  <g
     transform="matrix(0.8840505,0,0,0.92611091,1.3865297,0.88998855)"
     id="canvas">
    <path
       style="opacity:0;fill:#f6f6f6"
       id="path6"
       d="M 24,24 H 0 V 0 h 24 z"
       class="icon-canvas-transparent" />
  </g>
</svg>
