<?xml version="1.0" encoding="UTF-8" standalone="no"?>
<!-- Generator: Adobe Illustrator 12.0.0, SVG Export Plug-In . SVG Version: 6.00 Build 51448)  -->

<svg
   xmlns:dc="http://purl.org/dc/elements/1.1/"
   xmlns:cc="http://creativecommons.org/ns#"
   xmlns:rdf="http://www.w3.org/1999/02/22-rdf-syntax-ns#"
   xmlns:svg="http://www.w3.org/2000/svg"
   xmlns="http://www.w3.org/2000/svg"
   xmlns:sodipodi="http://sodipodi.sourceforge.net/DTD/sodipodi-0.dtd"
   xmlns:inkscape="http://www.inkscape.org/namespaces/inkscape"
   version="1.1"
   width="128"
   height="128"
   viewBox="0 0 128 127.99998"
   overflow="visible"
   enable-background="new 0 0 114.44 124.025"
   xml:space="preserve"
   id="svg3811"
   sodipodi:docname="Build_16x_dark.svg"
   inkscape:version="0.92.4 (5da689c313, 2019-01-14)"
   style="overflow:visible"><metadata
   id="metadata3817"><rdf:RDF><cc:Work
       rdf:about=""><dc:format>image/svg+xml</dc:format><dc:type
         rdf:resource="http://purl.org/dc/dcmitype/StillImage" /><dc:title></dc:title></cc:Work></rdf:RDF></metadata><defs
   id="defs3815" /><sodipodi:namedview
   pagecolor="#ffffff"
   bordercolor="#666666"
   borderopacity="1"
   objecttolerance="10"
   gridtolerance="10"
   guidetolerance="10"
   inkscape:pageopacity="0"
   inkscape:pageshadow="2"
   inkscape:window-width="1638"
   inkscape:window-height="893"
   id="namedview3813"
   showgrid="false"
   inkscape:snap-bbox="true"
   inkscape:snap-global="false"
   inkscape:zoom="1.9028421"
   inkscape:cx="-62.752465"
   inkscape:cy="40.742582"
   inkscape:window-x="1207"
   inkscape:window-y="934"
   inkscape:window-maximized="0"
   inkscape:current-layer="svg3811" />

<g
   id="Ebene_2"
   display="none"
   style="display:none"
   transform="translate(-28.573895,14.157902)">
	<g
   display="inline"
   id="g3807"
   style="display:inline">
		<path
   id="path3542_6_"
   d="m 59.495,5.5 c 0,0 -30.778,29.564 -16.035,59.249 0,0 -10.449,11.19 -10.533,24.555 -0.077,13.361 6.873,28.994 6.873,28.994 0,0 0.994,-18.421 7.551,-20.222 6.381,-1.75 8.318,8.096 8.635,8.74 2.765,-3.132 3.5,-3.1 5.793,0.034 0.25,-0.51 2.176,-9.501 8.736,-8.632 6.543,0.862 6.97,20.309 6.97,20.309 0,0 7.478,-15.549 7.559,-28.908 C 85.125,76.258 75.443,64.941 75.443,64.941 89.923,37.416 59.495,5.5 59.495,5.5 Z m -5.508,35.639 c -2.906,-2.941 -2.865,-7.692 0.092,-10.613 2.957,-2.922 7.709,-2.906 10.615,0.035 2.907,2.944 2.865,7.697 -0.089,10.618 -2.959,2.921 -7.711,2.903 -10.618,-0.04 z"
   inkscape:connector-curvature="0"
   style="fill:#43a1ff" />
		<path
   d="m 55.685,1.534 c -1.098,1.054 -21.778,21.275 -21.778,46.132 0,5.228 0.993,10.665 3.197,16.168 -3.479,4.579 -9.605,14.214 -9.676,25.435 0,0.084 0,0.167 0,0.251 0,14.319 7.045,30.334 7.347,31.013 1.032,2.321 3.52,3.632 6.019,3.173 2.499,-0.458 4.358,-2.57 4.499,-5.106 0.341,-6.138 1.973,-12.922 3.5,-14.922 0.39,0.523 1.014,1.651 1.727,4.088 l 0.533,1.479 c 0.659,1.828 2.114,2.893 4.023,3.257 1.377,0.263 2.707,-0.181 3.831,-0.983 1.061,0.72 2.297,1.138 3.563,0.938 1.962,-0.311 3.559,-1.319 4.251,-3.182 l 0.463,-1.247 c 0.778,-2.563 1.561,-3.708 2.101,-4.136 1.312,2.232 2.568,8.869 2.705,14.762 0.06,2.542 1.854,4.714 4.339,5.25 2.485,0.536 5.015,-0.699 6.117,-2.99 0.327,-0.681 8.014,-16.829 8.102,-31.259 0,-0.066 0.001,-0.133 0.001,-0.199 0,-11.064 -5.579,-20.65 -8.767,-25.229 2.144,-5.147 3.107,-10.342 3.107,-15.425 0,-24.288 -20.33,-45.96 -21.41,-47.093 C 62.47,0.651 61.082,0.038 59.62,0.006 58.158,-0.026 56.74,0.521 55.685,1.534 Z M 38.427,89.529 c 0,-0.065 0,-0.13 0,-0.193 0.069,-10.979 8.974,-20.747 9.063,-20.844 0.962,-1.043 1.466,-2.391 1.466,-3.753 0,-0.829 -0.187,-1.663 -0.571,-2.437 -2.403,-4.839 -3.379,-9.722 -3.379,-14.462 0,-14.375 8.959,-27.408 14.341,-33.948 5.37,6.931 14.484,20.768 14.484,34.948 0,4.556 -0.942,9.143 -3.256,13.541 -0.423,0.803 -0.629,1.68 -0.629,2.552 0,1.281 0.445,2.555 1.307,3.573 0.084,0.098 8.291,9.928 8.291,20.945 0,0.045 -10e-4,0.09 -10e-4,0.135 -0.017,2.77 -0.409,5.675 -0.989,8.509 -1.71,-2.833 -4.063,-4.899 -7.32,-5.329 -2.531,-0.335 -8.005,-0.134 -11.979,6.223 -0.178,-0.005 -0.345,0.015 -0.517,0.022 -4.195,-7.482 -10.142,-6.979 -12.842,-6.238 -2.824,0.775 -4.955,2.775 -6.579,5.358 -0.534,-2.862 -0.89,-5.799 -0.89,-8.602 z"
   id="path3803"
   inkscape:connector-curvature="0"
   style="fill:#f6f6f6" />
		<path
   d="m 50.213,26.614 c -2.479,2.449 -3.858,5.716 -3.879,9.197 0,0.027 0,0.054 0,0.082 0,3.436 1.326,6.669 3.74,9.112 5.032,5.094 13.284,5.134 18.395,0.088 5.108,-5.052 5.169,-13.303 0.138,-18.397 -2.434,-2.463 -5.682,-3.83 -9.148,-3.851 -3.482,-0.021 -6.765,1.318 -9.246,3.769 z m 7.687,10.66 v 0 c -0.497,-0.502 -0.568,-1.09 -0.566,-1.396 0.002,-0.314 0.083,-0.919 0.61,-1.439 0.527,-0.521 1.135,-0.596 1.449,-0.594 0.306,0.002 0.893,0.08 1.389,0.582 0.771,0.78 0.751,2.055 -0.044,2.842 -0.793,0.781 -2.067,0.786 -2.838,0.005 z m -7.825,7.731 c 0,0 -0.001,-0.001 0,0 0,-0.001 0,0 0,0 z"
   id="path3805"
   inkscape:connector-curvature="0"
   style="fill:#f6f6f6" />
	</g>
	<path
   id="path3542_5_"
   display="inline"
   d="m 59.495,5.5 c 0,0 -30.778,29.564 -16.035,59.249 0,0 -10.449,11.19 -10.533,24.555 -0.077,13.361 6.873,28.994 6.873,28.994 0,0 0.994,-18.421 7.551,-20.222 6.381,-1.75 8.318,8.096 8.635,8.74 2.765,-3.132 3.5,-3.1 5.793,0.034 0.25,-0.51 2.176,-9.501 8.736,-8.632 6.543,0.862 6.97,20.309 6.97,20.309 0,0 7.478,-15.549 7.559,-28.908 C 85.125,76.258 75.443,64.941 75.443,64.941 89.923,37.416 59.495,5.5 59.495,5.5 Z m -5.508,35.639 c -2.906,-2.941 -2.865,-7.692 0.092,-10.613 2.957,-2.922 7.709,-2.906 10.615,0.035 2.907,2.944 2.865,7.697 -0.089,10.618 -2.959,2.921 -7.711,2.903 -10.618,-0.04 z"
   inkscape:connector-curvature="0"
   style="display:inline;fill:#43a1ff" />
</g>
<g
   id="Ebene_1"
   transform="translate(6.9319143,11.951622)">
	
	
	<path
   id="path3542_4_"
   d="m 57.623937,-9.745335 c 0,0 -33.652626,32.327508 -17.530591,64.786537 0,0 -11.425431,12.234362 -11.518769,26.847431 -0.08344,14.608826 7.515838,31.704547 7.515838,31.704547 0,0 1.086116,-20.144058 8.256178,-22.112644 6.97773,-1.914845 9.094101,8.850854 9.440583,9.556544 3.024296,-3.4231 3.82969,-3.387037 6.335677,0.0382 0.272943,-0.55579 2.378,-10.388108 9.553012,-9.439877 7.155214,0.943987 7.62049,22.206687 7.62049,22.206687 0,0 8.176276,-16.999553 8.265371,-31.609793 C 85.650115,67.622753 75.064019,55.250506 75.064019,55.250506 90.89614,25.151799 57.623937,-9.745335 57.623937,-9.745335 Z m -8.848734,41.797082 c -3.178445,-3.215215 -3.13319,-14.066475 0.0997,-17.261184 3.235014,-3.195415 14.086274,-3.177031 17.264012,0.03748 3.178445,3.219457 3.13319,14.073546 -0.09758,17.266133 -3.235014,3.194002 -14.089103,3.175617 -17.266134,-0.04243 z"
   style="fill:#ffffff;fill-opacity:0.73333333"
   inkscape:connector-curvature="0"
   sodipodi:nodetypes="ccccccccccccccccc" />
</g></svg>