<?xml version="1.0" encoding="UTF-8" standalone="no"?>
<svg
   xmlns:dc="http://purl.org/dc/elements/1.1/"
   xmlns:cc="http://creativecommons.org/ns#"
   xmlns:rdf="http://www.w3.org/1999/02/22-rdf-syntax-ns#"
   xmlns:svg="http://www.w3.org/2000/svg"
   xmlns="http://www.w3.org/2000/svg"
   xmlns:sodipodi="http://sodipodi.sourceforge.net/DTD/sodipodi-0.dtd"
   xmlns:inkscape="http://www.inkscape.org/namespaces/inkscape"
   id="svg12"
   version="1.1"
   viewBox="0 0 24 24"
   sodipodi:docname="build_dark.svg"
   inkscape:version="0.92.4 (5da689c313, 2019-01-14)">
  <sodipodi:namedview
     pagecolor="#ffffff"
     bordercolor="#666666"
     borderopacity="1"
     objecttolerance="10"
     gridtolerance="10"
     guidetolerance="10"
     inkscape:pageopacity="0"
     inkscape:pageshadow="2"
     inkscape:window-width="1920"
     inkscape:window-height="1017"
     id="namedview9"
     showgrid="false"
     inkscape:pagecheckerboard="true"
     inkscape:zoom="32.265625"
     inkscape:cx="12"
     inkscape:cy="12"
     inkscape:window-x="-8"
     inkscape:window-y="-8"
     inkscape:window-maximized="1"
     inkscape:current-layer="svg12" />
  <metadata
     id="metadata16">
    <rdf:RDF>
      <cc:Work
         rdf:about="">
        <dc:format>image/svg+xml</dc:format>
        <dc:type
           rdf:resource="http://purl.org/dc/dcmitype/StillImage" />
        <dc:title></dc:title>
      </cc:Work>
    </rdf:RDF>
  </metadata>
  <defs
     id="defs4">
    <style
       id="style2">.icon-canvas-transparent{fill:#f6f6f6;opacity:0;}.light{fill:#424242;}</style>
  </defs>
  <path
     id="path941"
     d="m 8.2783533,12.101416 c -1.068237,1.106272 -1.9851554,2.031825 -2.1118507,4.433424 -0.049982,2.213282 1.1756673,5.523631 2.4390045,6.90282 -0.032191,-1.707876 0.032489,-3.757954 1.1474312,-4.528905 0.8141367,-0.416542 1.1374377,0.968622 1.2785817,1.572204 0.180505,0.526632 0.319441,0.40338 0.553446,0.349102 0.209161,-0.04853 0.133727,-0.715694 0.461704,-0.731371 0.250323,-0.01199 0.282782,0.792103 0.473634,0.796437 0.366055,0.0088 0.412219,-0.38686 0.509001,-0.712437 0.121107,-0.702771 1.060424,-1.698232 1.590196,-1.024816 0.817596,0.912565 0.709927,2.546475 0.706282,4.303624 1.587563,-2.054789 2.933617,-4.371739 2.503015,-7.104159 -0.365158,-2.242924 -0.97357,-2.773364 -1.59141,-3.856133 C 17.254904,8.0236574 16.758005,5.7550965 15.273631,3.4728463 13.9912,1.5010711 12.7582,0.6888245 12.212819,0.5385017 11.276712,1.1345369 10.092576,1.9912563 8.7032843,4.2125107 7.3139923,6.4337652 7.4969778,10.043572 8.2783533,12.101416 Z M 12.298637,2.0761614 c 0,0 1.035688,0.5477531 2.370849,3.3450717 1.335148,2.7973192 -0.341268,7.0337149 -0.341268,7.0337149 0,0 0.993054,1.023485 1.578151,2.392889 0.609334,1.426114 0.85181,2.830286 0.255361,5.102396 8.74e-4,-0.6875 -0.557455,-2.062397 -1.509511,-2.424402 -0.869967,-0.330791 -1.988989,0.210194 -2.252402,1.1644 -0.228137,-0.216962 -0.475827,-0.315187 -0.731245,0.0118 C 11.557049,17.943814 10.653045,17.290389 9.8239839,17.356485 8.5668758,17.521514 8.1602756,18.528395 7.9364294,19.558429 7.5846925,18.152435 7.4416178,17.065077 8.0004453,15.096337 8.3755394,13.774889 9.786483,12.871163 10.117483,12.643212 9.983195,12.385658 8.3270312,8.543118 9.5944836,5.7068539 10.861941,2.8705895 12.298637,2.0761614 12.298637,2.0761614 Z M 10.79348,5.6247749 c -0.74126,0.7028516 -0.745546,1.9020507 -0.01,2.6788818 0.736279,0.7765414 1.933986,0.8365208 2.675547,0.1339866 0.742198,-0.7026443 0.74693,-1.9025878 0.01052,-2.6798276 C 12.73323,4.9808656 11.534755,4.9212939 10.793354,5.6247749 Z m 0.657588,0.6938133 c 0.375618,-0.3562613 0.982722,-0.3258582 1.355664,0.067891 0.373197,0.3935049 0.37102,1.0013613 -0.0051,1.3573535 -0.375779,0.3553136 -0.98211,0.3245042 -1.354665,-0.068837 -0.372812,-0.3930954 -0.371087,-1.0002077 0.004,-1.356407 z"
     style="color:#000000;clip-rule:nonzero;display:inline;overflow:visible;visibility:visible;opacity:1;isolation:auto;mix-blend-mode:normal;color-interpolation:sRGB;color-interpolation-filters:linearRGB;solid-color:#000000;solid-opacity:1;vector-effect:none;fill:#ffffff;fill-opacity:0.73333333;fill-rule:nonzero;stroke:none;stroke-width:1.44032979;stroke-linecap:round;stroke-linejoin:miter;stroke-miterlimit:4;stroke-dasharray:none;stroke-dashoffset:0;stroke-opacity:1;paint-order:normal;color-rendering:auto;image-rendering:auto;shape-rendering:auto;text-rendering:auto;enable-background:accumulate"
     inkscape:connector-curvature="0" />
  <g
     transform="matrix(0.84008826,0,0,0.8800571,1.9189409,1.355794)"
     id="canvas">
    <path
       style="opacity:0;fill:#f6f6f6"
       id="path6"
       d="M 24,24 H 0 V 0 h 24 z"
       class="icon-canvas-transparent"
       inkscape:connector-curvature="0" />
  </g>
</svg>
