<?xml version="1.0" encoding="UTF-8" standalone="no"?>
<svg
   xmlns:dc="http://purl.org/dc/elements/1.1/"
   xmlns:cc="http://creativecommons.org/ns#"
   xmlns:rdf="http://www.w3.org/1999/02/22-rdf-syntax-ns#"
   xmlns:svg="http://www.w3.org/2000/svg"
   xmlns="http://www.w3.org/2000/svg"
   id="svg1674"
   version="1.1"
   viewBox="0 0 29.09659 28.773083"
   height="28.773083mm"
   width="29.09659mm">
  <defs
     id="defs1668" />
  <metadata
     id="metadata1671">
    <rdf:RDF>
      <cc:Work
         rdf:about="">
        <dc:format>image/svg+xml</dc:format>
        <dc:type
           rdf:resource="http://purl.org/dc/dcmitype/StillImage" />
        <dc:title></dc:title>
      </cc:Work>
    </rdf:RDF>
  </metadata>
  <g
     transform="translate(-2.3789509,-72.979306)"
     id="layer1">
    <g
       id="g1648"
       transform="rotate(45,95.00391,-43.234982)">
      <path
         d="m 330.928,168.824 c 0,0 -7.427,-1.834 -7.212,-14.673 0,0 -9.779,16.176 6.635,27.231 16.54,-10.856 6.96,-27.151 6.96,-27.151 0.057,12.844 -6.383,14.593 -6.383,14.593 z m -0.541,-4.847 c 7.307,-4.794 3.075,-11.996 3.075,-11.996 0.035,3.952 -3.362,4.158 -3.362,4.158 0,0 -2.487,-0.468 -2.645,-4.193 0.003,0.001 -4.32,7.148 2.932,12.031 z"
         id="path3542_21_"
         style="fill:#ff960b"
         transform="matrix(0.26458333,0,0,0.26458333,44.58348,75.40484)" />
      <path
         d="m 331.372,31.967 c 0,0 -36.128,34.703 -18.821,69.547 0,0 -12.267,13.136 -12.363,28.822 -0.093,15.685 8.065,34.035 8.065,34.035 0,0 1.168,-21.624 8.864,-23.738 7.49,-2.055 9.763,9.502 10.136,10.26 3.246,-3.675 4.109,-3.64 6.799,0.039 0.293,-0.597 2.554,-11.151 10.255,-10.132 7.682,1.014 8.182,23.84 8.182,23.84 0,0 8.778,-18.25 8.873,-33.934 0.095,-15.684 -11.27,-28.966 -11.27,-28.966 16.995,-32.311 -18.72,-69.773 -18.72,-69.773 z m -6.465,41.834 c -3.411,-3.453 -3.363,-9.029 0.108,-12.459 3.47,-3.429 9.049,-3.41 12.459,0.042 3.413,3.455 3.364,9.034 -0.105,12.462 -3.473,3.43 -9.051,3.41 -12.462,-0.045 z"
         id="path3542_20_"
         style="fill:#43a1ff"
         transform="matrix(0.26458333,0,0,0.26458333,44.58348,75.40484)" />
    </g>
  </g>
</svg>
